<svg width="100%" height="100%" viewBox="0 0 100 100" preserveAspectRatio="none" xmlns="http://www.w3.org/2000/svg">
  <path d="M75 0 C72 25, 78 75, 75 100" stroke="#205244" stroke-width="0.5" fill="none"/>
  <path d="M77 0 C74 25, 80 75, 77 100" stroke="#205244" stroke-width="0.5" fill="none"/>
  <path d="M79 0 C76 25, 82 75, 79 100" stroke="#205244" stroke-width="0.5" fill="none"/>
  <path d="M81 0 C78 25, 84 75, 81 100" stroke="#205244" stroke-width="0.5" fill="none"/>
  <path d="M83 0 C80 25, 86 75, 83 100" stroke="#205244" stroke-width="0.5" fill="none"/>
  <path d="M85 0 C82 25, 88 75, 85 100" stroke="#205244" stroke-width="0.5" fill="none"/>
  <path d="M87 0 C84 25, 90 75, 87 100" stroke="#205244" stroke-width="0.5" fill="none"/>
  <path d="M89 0 C86 25, 92 75, 89 100" stroke="#205244" stroke-width="0.5" fill="none"/>
  <path d="M91 0 C88 25, 94 75, 91 100" stroke="#205244" stroke-width="0.5" fill="none"/>
  <path d="M93 0 C90 25, 96 75, 93 100" stroke="#205244" stroke-width="0.5" fill="none"/>
</svg>